HIERARCHY
ROOT hip
{
	OFFSET 0.000000 0.000000 0.000000 
	CHANNELS 6 Xposition Yposition Zposition Xrotation Zrotation Yrotation
	JOINT abdomen
	{
		OFFSET 0.000000 3.402643 0.000000 
		CHANNELS 3 Xrotation Zrotation Yrotation
		JOINT chest
		{
			OFFSET 0.000000 8.438565 -0.680529 
			CHANNELS 3 Xrotation Zrotation Yrotation
			JOINT neck
			{
				OFFSET 0.000000 10.207942 -0.272212 
				CHANNELS 3 Xrotation Zrotation Yrotation
				JOINT head
				{
					OFFSET 0.000000 3.130431 0.000000 
					CHANNELS 3 Xrotation Zrotation Yrotation
					End Site
					{
						OFFSET 0.000000 3.130435 0.000000 
					}
				}
			}
			JOINT lCollar
			{
				OFFSET 3.470700 6.669187 -0.816635 
				CHANNELS 3 Yrotation Zrotation Xrotation
				JOINT lShldr
				{
					OFFSET 3.198488 0.000000 0.000000 
					CHANNELS 3 Zrotation Yrotation Xrotation
					JOINT lForeArm
					{
						OFFSET 10.139888 0.000000 0.000000 
						CHANNELS 3 Yrotation Zrotation Xrotation
						JOINT lHand
						{
							OFFSET 8.370511 0.000000 0.000000 
							CHANNELS 3 Zrotation Yrotation Xrotation
							End Site
							{
								OFFSET 4.083176 0.000000 0.000000 
							}
						}
					}
				}
			}
			JOINT rCollar
			{
				OFFSET -3.470700 6.669187 -0.816635 
				CHANNELS 3 Yrotation Zrotation Xrotation
				JOINT rShldr
				{
					OFFSET -3.198488 0.000000 0.000000 
					CHANNELS 3 Zrotation Yrotation Xrotation
					JOINT rForeArm
					{
						OFFSET -10.139888 0.000000 0.000000 
						CHANNELS 3 Yrotation Zrotation Xrotation
						JOINT rHand
						{
							OFFSET -8.370511 0.000000 0.000000 
							CHANNELS 3 Zrotation Yrotation Xrotation
							End Site
							{
								OFFSET -4.083176 0.000000 0.000000 
							}
						}
					}
				}
			}
		}
	}
	JOINT lThigh
	{
		OFFSET 5.308129 -1.633274 1.361059 
		CHANNELS 3 Xrotation Zrotation Yrotation
		JOINT lShin
		{
			OFFSET -2.041588 -20.007561 0.000000 
			CHANNELS 3 Xrotation Zrotation Yrotation
			JOINT lFoot
			{
				OFFSET 0.000000 -19.190928 -1.224953 
				CHANNELS 3 Xrotation Yrotation Zrotation
				End Site
				{
					OFFSET 0.000000 -2.449906 4.627600 
				}
			}
		}
	}
	JOINT rThigh
	{
		OFFSET -5.308129 -1.633274 1.361059 
		CHANNELS 3 Xrotation Zrotation Yrotation
		JOINT rShin
		{
			OFFSET 2.041588 -20.007561 0.000000 
			CHANNELS 3 Xrotation Zrotation Yrotation
			JOINT rFoot
			{
				OFFSET 0.000000 -19.190928 -1.224953 
				CHANNELS 3 Xrotation Yrotation Zrotation
				End Site
				{
					OFFSET 0.000000 -2.449906 4.627600 
				}
			}
		}
	}
}
MOTION
Frames: 8
Frame Time: 0.033333
4.081745 39.415901 -23.198013 11.416016 -8.808366 80.144745 27.001953 1.416016 2.939453 -26.728514 -10.937499 3.181741 -17.080076 4.160156 -36.538795 6.015625 0.351562 -35.000000 3.828125 16.513672 0.732422 -17.500002 -49.130863 -49.033199 -61.562504 -2.363281 -15.644531 5.322266 -14.355470 -1.027812 -16.279295 -11.962891 0.470774 42.783211 97.558594 -19.560629 69.208984 3.554688 -55.068356 -8.681641 3.603516 -0.625000 -30.924442 35.901489 15.017759 51.032730 -0.255858 -3.023847 -0.454540 -10.682069 -5.206071 -67.321495 -38.328472 -1.469568 81.030907 -2.480316 3.487415 -15.623531 3.523679 5.839285 
4.065886 39.106709 -23.809484 11.054687 -8.798827 80.156250 27.177734 1.914062 3.105469 -26.728516 -10.058594 2.998047 -17.119141 2.978516 -35.927227 6.708984 1.240234 -34.794708 5.488282 16.582031 0.739401 -11.357421 -47.041016 -55.241520 -61.240234 -2.392578 -16.884357 4.794922 -15.234375 -0.986328 -16.591797 -12.187499 0.509874 48.056664 99.287109 -14.257941 71.435547 3.681641 -55.781879 -8.886719 5.527344 -0.810547 -28.786953 35.005554 13.477839 48.581894 -0.579793 -3.045018 -3.318844 -7.103139 -5.550314 -68.233948 -39.116180 -0.298495 81.412880 -1.943377 3.240686 -15.080643 4.475999 6.312043 
4.026656 38.800617 -24.541386 11.054687 -8.798827 80.332024 27.343752 1.855469 3.271801 -26.718750 -9.365234 2.998129 -17.148436 1.777344 -35.497742 7.236329 1.777344 -34.599308 6.992188 16.669922 0.827277 -6.640625 -44.960938 -60.273434 -61.337891 -2.490234 -17.441408 4.091796 -15.771484 -0.957031 -16.562502 -12.578126 0.576172 50.185551 100.283203 -12.509923 73.906250 3.623047 -56.103519 -8.750001 7.578125 -1.142578 -27.361267 34.448860 13.594282 46.982525 -0.433172 -2.903752 -6.803112 -6.648276 -6.219698 -69.690582 -39.869320 1.382342 81.752831 -1.972445 3.266861 -14.310658 4.907320 6.294129 
3.969301 38.564877 -25.326946 11.250000 -8.632813 80.467285 27.343752 1.855469 3.271801 -26.728516 -8.837891 2.998047 -16.982420 0.732422 -35.253784 7.402343 2.119140 -34.433594 8.046876 16.357424 0.739437 -2.783203 -42.939457 -64.108215 -61.425777 -2.578125 -17.978075 3.525391 -16.308594 -0.751953 -16.562500 -12.919923 0.468750 51.738300 100.791016 -11.640799 76.201172 3.623047 -55.996094 -8.652345 9.677735 -1.347656 -27.597521 34.023045 13.860366 48.043659 -0.745605 -3.087878 -9.964413 -7.561791 -6.531370 -70.791313 -40.424637 3.066400 81.586609 -1.962548 3.278879 -13.584910 4.890926 6.029234 
3.889647 38.468056 -26.146969 11.416016 -8.457032 80.672386 27.509766 1.630867 3.388688 -26.708982 -8.476562 3.182155 -16.835938 -0.126953 -35.039059 7.587891 2.119140 -34.413700 8.720703 16.220705 0.742188 -0.117188 -41.347656 -66.845703 -61.660152 -2.548828 -18.358938 3.134766 -16.679688 -0.520379 -16.503908 -13.476563 0.517578 52.705101 101.171875 -11.689638 78.300781 3.574219 -56.104126 -9.062500 11.220703 -1.521537 -28.798079 33.816483 15.163167 50.169731 -0.440875 -2.899929 -12.204899 -8.992297 -7.257075 -71.651405 -41.118702 4.956373 80.708580 -1.962697 3.238569 -12.682010 4.695385 6.075852 
3.837420 38.519566 -26.961145 11.601563 -8.261718 80.859383 27.509766 1.572266 3.554688 -26.376953 -8.134767 3.367759 -16.337891 -1.347656 -34.599606 7.402344 1.953125 -34.257481 8.964845 15.507813 0.602858 1.210938 -40.224609 -67.994591 -62.099609 -2.519531 -18.915585 3.134766 -17.207031 -0.520465 -16.640623 -14.013672 0.490646 54.209000 101.621094 -10.429890 79.941406 3.652344 -57.315075 -10.214844 12.382813 -1.972656 -29.294777 33.032692 16.190443 51.930656 -0.304604 -3.080499 -13.792506 -9.716361 -8.018259 -71.630600 -41.626091 6.498496 79.288460 -1.800228 3.482973 -11.565340 4.314318 5.618903 
3.799620 38.737537 -27.752193 11.777344 -7.929688 80.643181 27.675783 1.621094 3.945589 -26.201170 -7.949218 3.533805 -16.005859 -1.845703 -34.385078 7.050781 1.416016 -34.257809 9.296875 15.195313 0.768924 1.103516 -39.785160 -67.998047 -62.402344 -2.626953 -19.608929 2.949219 -17.197268 -0.507813 -16.962891 -14.248047 0.507813 54.960949 102.421875 -8.974840 80.859375 3.681641 -58.935543 -11.396484 13.515624 -2.360999 -29.675465 32.563560 17.108036 53.149757 -0.461177 -3.215539 -14.711252 -10.021067 -8.082714 -70.992218 -41.853680 7.516385 77.004669 -1.806201 3.396863 -10.294812 4.803956 5.577017 
3.773148 39.094666 -28.505798 11.933594 -7.734375 80.682281 27.490232 1.572266 4.111328 -26.005857 -7.255858 3.719470 -15.839842 -2.363281 -34.180092 6.884765 1.064453 -34.277344 9.716797 14.462890 0.593264 0.898438 -39.414066 -67.633156 -62.773441 -2.597656 -19.775393 2.949219 -17.197268 -0.507813 -17.412109 -14.511719 0.656744 55.722679 103.339844 -6.963154 81.142578 3.632813 -59.815067 -11.943359 13.466797 -2.546552 -29.148567 30.963041 17.913300 53.486496 -0.600059 -3.144758 -15.333457 -9.814969 -7.849870 -69.980766 -42.310135 8.247987 74.344925 -1.962953 3.538174 -8.533900 4.547415 5.561289 
